<?xml version="1.0" encoding="UTF-8"?><svg id="b" xmlns="http://www.w3.org/2000/svg" viewBox="0 0 128 150"><defs><style>.d{fill:#256ca3;}</style></defs><g id="c"><path class="d" d="M128,36.73C106.64,24.51,85.33,12.22,63.99,0,42.69,12.3,21.29,24.49,0,36.84c.26,5.94-.19,11.89.11,17.85.15,18.38,3.24,37.34,12.81,53.35,5.76,9.76,13.83,18.01,22.89,24.78,8.78,6.64,18.43,12,28.15,17.18,11.76-5.77,23.34-12.19,33.42-20.61,6.95-5.81,13.05-12.69,17.67-20.48,6.1-10.18,9.58-21.74,11.31-33.41,2.03-12.82,1.57-25.84,1.64-38.77ZM114.02,74.48c-15.34-8.9-30.77-17.68-46.13-26.56-1.01-.54-1.96-1.21-2.98-1.67l3.09-5.45-12.43.11-12.43.13,6.32,10.65,6.32,10.67,2.87-5.08c17.43,10.02,34.84,20.02,52.25,30.03-3.34,9.52-9.02,18.09-16.07,25.28-9.02,9.11-19.74,16.36-30.85,22.69-8.97-5.23-17.78-10.83-25.63-17.66-8.02-6.92-14.97-15.29-19.26-25.01-2.18-4.9-3.69-10.07-4.68-15.32,15.71,8.98,31.43,17.96,47.08,27.01l-3.19,4.8,12.41.74,12.41.74-5.57-11.07-5.55-11.06-3.49,5.25c-18.51-10.63-37.02-21.24-55.49-31.91.02-5.71-.02-11.43.04-17.14,16.96-9.78,33.98-19.52,50.94-29.29,17,9.78,34,19.55,51,29.31-.17,9.94.56,19.96-.99,29.81Z"/></g></svg>