<?xml version="1.0" encoding="UTF-8"?><svg id="b" xmlns="http://www.w3.org/2000/svg" viewBox="0 0 316.7 75"><defs><style>.d{fill:#256ca3;}</style></defs><g id="c"><path class="d" d="M64,18.37C53.32,12.25,42.67,6.11,32,0,21.34,6.15,10.64,12.24,0,18.42c.13,2.97-.09,5.95.06,8.92.07,9.19,1.62,18.67,6.4,26.68,2.88,4.88,6.92,9.01,11.44,12.39,4.39,3.32,9.22,6,14.07,8.59,5.88-2.88,11.67-6.09,16.71-10.3,3.48-2.9,6.52-6.34,8.84-10.24,3.05-5.09,4.79-10.87,5.66-16.7,1.02-6.41.78-12.92.82-19.39ZM57.01,37.24c-7.67-4.45-15.39-8.84-23.07-13.28-.5-.27-.98-.6-1.49-.83l1.55-2.73-6.22.06-6.22.06,3.16,5.32,3.16,5.33,1.44-2.54c8.71,5.01,17.42,10.01,26.12,15.02-1.67,4.76-4.51,9.04-8.03,12.64-4.51,4.55-9.87,8.18-15.42,11.34-4.48-2.62-8.89-5.42-12.81-8.83-4.01-3.46-7.48-7.64-9.63-12.5-1.09-2.45-1.85-5.04-2.34-7.66,7.86,4.49,15.71,8.98,23.54,13.5l-1.59,2.4,6.21.37,6.21.37-2.79-5.54-2.78-5.53-1.74,2.62c-9.25-5.31-18.51-10.62-27.75-15.95,0-2.86,0-5.71.02-8.57,8.48-4.89,16.99-9.76,25.47-14.65,8.5,4.89,17,9.78,25.5,14.65-.08,4.97.28,9.98-.49,14.91Z"/><path d="M76.61,48.96l5.94-3.48c1.5,4.26,4.74,7.08,10.44,7.08s7.8-2.46,7.8-5.52c0-3.72-3.3-4.98-9.54-6.9-6.54-1.98-12.9-4.38-12.9-12.3s6.42-12.12,13.5-12.12,12,3.66,14.64,9.24l-5.82,3.36c-1.5-3.36-4.14-5.88-8.82-5.88-4.02,0-6.6,2.04-6.6,5.22s2.34,4.62,8.46,6.54c6.96,2.22,13.98,4.38,13.98,12.72,0,7.68-6.12,12.36-14.88,12.36-8.28,0-13.98-4.08-16.2-10.32Z"/><path d="M128.75,53.34c3.6,0,6.3-1.62,7.74-3.72l5.34,3.12c-2.76,4.08-7.26,6.54-13.14,6.54-9.9,0-16.32-6.78-16.32-15.78s6.42-15.78,15.84-15.78,15.06,7.2,15.06,15.84c0,.9-.12,1.86-.24,2.7h-23.88c1.02,4.68,4.8,7.08,9.6,7.08ZM136.73,40.98c-.9-5.16-4.68-7.38-8.58-7.38-4.86,0-8.16,2.88-9.06,7.38h17.64Z"/><path d="M176.27,40.08v18.42h-6.48v-17.76c0-4.56-2.64-6.96-6.72-6.96s-7.62,2.52-7.62,8.64v16.08h-6.48v-30h6.48v3.84c1.98-3.12,5.22-4.62,9.3-4.62,6.72,0,11.52,4.56,11.52,12.36Z"/><path d="M213.47,16.5v42h-6.48v-4.32c-2.28,3.18-5.82,5.1-10.5,5.1-8.16,0-14.94-6.9-14.94-15.78s6.78-15.78,14.94-15.78c4.68,0,8.22,1.92,10.5,5.04v-16.26h6.48ZM206.99,43.5c0-5.58-4.08-9.6-9.48-9.6s-9.48,4.02-9.48,9.6,4.08,9.6,9.48,9.6,9.48-4.02,9.48-9.6Z"/><path d="M235.28,53.34c3.6,0,6.3-1.62,7.74-3.72l5.34,3.12c-2.76,4.08-7.26,6.54-13.14,6.54-9.9,0-16.32-6.78-16.32-15.78s6.42-15.78,15.84-15.78,15.06,7.2,15.06,15.84c0,.9-.12,1.86-.24,2.7h-23.88c1.02,4.68,4.8,7.08,9.6,7.08ZM243.26,40.98c-.9-5.16-4.68-7.38-8.58-7.38-4.86,0-8.16,2.88-9.06,7.38h17.64Z"/><path d="M282.8,40.08v18.42h-6.48v-17.76c0-4.56-2.64-6.96-6.72-6.96s-7.62,2.52-7.62,8.64v16.08h-6.48v-30h6.48v3.84c1.98-3.12,5.22-4.62,9.3-4.62,6.72,0,11.52,4.56,11.52,12.36Z"/><path d="M316.7,28.5l-11.7,30h-7.5l-11.7-30h7.08l8.4,22.8,8.34-22.8h7.08Z"/></g></svg>